/vscmnt/brussel_pixiu_data/_data_brussel/112/vsc11236/PredSimResults/SUBJ07opt3D/expIG/worker_04.mot
version=1
nRows=9
nColumns=50
inDegrees=yes
endheader
                time	         pelvis_tilt	         pelvis_list	     pelvis_rotation	           pelvis_tx	           pelvis_ty	           pelvis_tz	       hip_flexion_r	     hip_adduction_r	      hip_rotation_r	        knee_angle_r	       ankle_angle_r	         mtp_angle_r	       hip_flexion_l	     hip_adduction_l	      hip_rotation_l	        knee_angle_l	       ankle_angle_l	         mtp_angle_l	    lumbar_extension	      lumbar_bending	     lumbar_rotation	 ercspn_r/activation	 intobl_r/activation	 extobl_r/activation	    abd_r/activation	    add_r/activation	hamstrings_r/activation	bifemsh_r/activation	glut_max_r/activation	iliopsoas_r/activation	rect_fem_r/activation	  vasti_r/activation	gastroc_r/activation	 soleus_r/activation	tib_ant_r/activation	 ercspn_l/activation	 intobl_l/activation	 extobl_l/activation	    abd_l/activation	    add_l/activation	hamstrings_l/activation	bifemsh_l/activation	glut_max_l/activation	iliopsoas_l/activation	rect_fem_l/activation	  vasti_l/activation	gastroc_l/activation	 soleus_l/activation	tib_ant_l/activation	
          0.00000000	         -2.53854778	         -0.31552462	          8.13209878	          0.00000000	          0.86244603	         -0.01744406	         26.37700979	         -2.17912156	         -3.09928971	         -6.97516568	          0.61918792	          0.24174848	        -11.81226404	          0.16614327	          3.27895060	         -7.55842461	         11.08501600	         20.83907041	         -8.31385547	         -2.83513105	          0.13197187	          0.12710293	          0.15172356	          0.01000000	          0.01317578	          0.08725254	          0.03478228	          0.01000003	          0.02077641	          0.02018476	          0.01211000	          0.01210997	          0.00999999	          0.00999999	          0.33402089	          0.04619313	          0.00999999	          0.00999999	          0.05300856	          0.00999999	          0.01000033	          0.11813467	          0.01000000	          0.13166420	          0.01000002	          0.00999999	          0.13589395	          0.27742354	          0.02150656	
          0.01265978	         -2.58470422	         -0.25041414	          8.11673782	          0.01304642	          0.86107790	         -0.01679047	         26.00802638	         -1.96520922	         -2.84608229	         -7.64258030	          0.39096683	          0.24397437	        -12.29876974	          0.12216507	          2.87418399	         -8.21467516	         10.63146877	         22.18784672	         -8.22224258	         -2.49344783	         -0.09740618	          0.11708054	          0.12575224	          0.01000000	          0.01088012	          0.10927263	          0.02911825	          0.08842277	          0.06424903	          0.01666790	          0.01000004	          0.01000000	          0.01466512	          0.01269810	          0.32775469	          0.08043412	          0.00999999	          0.00999999	          0.04377268	          0.01000000	          0.01000037	          0.09755163	          0.01310669	          0.10872386	          0.01789321	          0.01000000	          0.12344828	          0.27193559	          0.01775940	
          0.02531957	         -2.62459376	         -0.17972975	          8.05692644	          0.02637644	          0.85986513	         -0.01605767	         25.58372138	         -1.78659364	         -2.55360697	         -8.44020036	          0.12724287	          0.23743620	        -12.75502248	          0.08710882	          2.44185591	         -8.96416915	         10.06354889	         23.54594533	         -8.11349615	         -2.13863862	         -0.33464985	          0.10723160	          0.12819004	          0.00999999	          0.02276284	          0.09887451	          0.03696804	          0.07921630	          0.06701549	          0.01376379	          0.01000000	          0.00999999	          0.01210996	          0.01048567	          0.36378182	          0.08949505	          0.00999999	          0.00999999	          0.03614600	          0.01000000	          0.01000132	          0.08055485	          0.01082307	          0.08978050	          0.01477571	          0.01230676	          0.10193943	          0.26299654	          0.01466511	
          0.03797935	         -2.65939821	         -0.10172388	          7.94843691	          0.03985540	          0.85892426	         -0.01521918	         25.15894902	         -1.63369675	         -2.29552614	         -9.21546532	         -0.23206643	          0.22957502	        -13.12873111	          0.06478588	          1.98703913	         -9.87753886	          9.35893209	         24.90476265	         -8.00349965	         -1.77894392	         -0.57604461	          0.12304408	          0.10585502	          0.00999999	          0.06615778	          0.11718366	          0.04048083	          0.06541416	          0.07277492	          0.01136568	          0.01000000	          0.00999999	          0.01000000	          0.00999999	          0.39335584	          0.10752811	          0.00999999	          0.00999999	          0.02984815	          0.00999999	          0.01000021	          0.06651948	          0.01000000	          0.07413771	          0.02150667	          0.01512008	          0.08417815	          0.24952109	          0.01210995	
          0.05063914	         -2.68864357	         -0.00958225	          7.79328228	          0.05340471	          0.85837190	         -0.01428161	         24.77739679	         -1.49997859	         -2.09783802	        -10.08104707	         -0.53782630	          0.21873893	        -13.38762222	          0.06319064	          1.50817017	        -10.99259609	          8.47429802	         26.25979148	         -7.89661950	         -1.42441659	         -0.81667590	          0.12723342	          0.08741151	          0.00999999	          0.09919011	          0.12949419	          0.04178449	          0.05401681	          0.08117212	          0.01000000	          0.01000000	          0.01158769	          0.01000000	          0.00999999	          0.40858361	          0.12993895	          0.00999999	          0.00999999	          0.02464760	          0.00999999	          0.01000023	          0.05492955	          0.01000000	          0.06122042	          0.01775949	          0.02013394	          0.06951148	          0.23229433	          0.00999999	
          0.06329892	         -2.71200687	          0.09558319	          7.59640665	          0.06695813	          0.85831335	         -0.01325678	         24.45829000	         -1.38276302	         -1.95383367	        -11.09240077	         -0.65411800	          0.20596501	        -13.50410811	          0.08046114	          1.00349547	        -12.33794568	          7.38344546	         27.57613764	         -7.79303542	         -1.07844781	         -1.05326880	          0.12456733	          0.07218148	          0.00999999	          0.12652920	          0.14096309	          0.04472962	          0.04460527	          0.08473338	          0.01000000	          0.01000000	          0.02194314	          0.01000000	          0.00999999	          0.40409148	          0.15354461	          0.00999999	          0.00999999	          0.02035315	          0.01525012	          0.01000093	          0.04535897	          0.01000001	          0.05055376	          0.01466519	          0.02794052	          0.05740023	          0.20961125	          0.00999999	
          0.07595870	         -2.73008031	          0.21190112	          7.36321807	          0.08045136	          0.85882911	         -0.01215590	         24.18866750	         -1.27618924	         -1.83650544	        -12.23152543	         -0.50269574	          0.19754599	        -13.45373376	          0.11352979	          0.46719789	        -13.93659789	          6.08746365	         28.76974242	         -7.69318371	         -0.74431881	         -1.28588873	          0.12500116	          0.05960503	          0.00999999	          0.14241473	          0.15861515	          0.04719830	          0.03683354	          0.09329071	          0.01000000	          0.01000000	          0.02836830	          0.01000000	          0.00999999	          0.37986809	          0.16746244	          0.00999999	          0.00999999	          0.01680695	          0.03526179	          0.01399415	          0.03745591	          0.01000000	          0.04174559	          0.01211002	          0.02944942	          0.04739918	          0.18536410	          0.00999999	
          0.08861849	         -2.74311834	          0.34135950	          7.09744921	          0.09383597	          0.85991422	         -0.01099399	         23.93156496	         -1.17865365	         -1.72512415	        -13.42940459	         -0.07317875	          0.22175583	        -13.19050751	          0.16297698	         -0.11320129	        -15.86821133	          4.65265962	         29.69703623	         -7.59730463	         -0.42681203	         -1.51276287	          0.12535354	          0.04921982	          0.00999999	          0.15216805	          0.17731600	          0.05186522	          0.03041591	          0.10220803	          0.01000000	          0.01000000	          0.03307793	          0.00999999	          0.00999999	          0.33033744	          0.17801695	          0.00999999	          0.00999999	          0.01387861	          0.06217908	          0.01523652	          0.03092983	          0.00999999	          0.03447210	          0.01000005	          0.02725508	          0.03914064	          0.15335881	          0.00999999	
          0.10127827	         -2.75121452	          0.48438370	          6.80312112	          0.10707286	          0.86150112	         -0.00978529	         23.63396443	         -1.08768121	         -1.59931098	        -14.57484826	          0.57586379	          0.31312035	        -12.65031917	          0.22317683	         -0.74946034	        -18.25297792	          3.17970299	         30.16648240	         -7.50531448	         -0.12766760	         -1.73205028	          0.12275433	          0.04064407	          0.00999999	          0.15494483	          0.19158229	          0.05807909	          0.02511646	          0.10759884	          0.01000000	          0.01000000	          0.03879248	          0.01000000	          0.00999999	          0.28030826	          0.18261570	          0.00999999	          0.00999999	          0.01146049	          0.09047294	          0.01606725	          0.02554081	          0.00999999	          0.02846590	          0.01000000	          0.02250633	          0.03232102	          0.12663854	          0.00999999	
